<svg width="19" height="21" viewBox="0 0 19 21" fill="none" xmlns="http://www.w3.org/2000/svg">
<path d="M7.61818 5.2345C7.83986 5.31992 8.0206 5.38275 8.17262 5.42817C8.34701 6.04969 8.74731 6.65449 9.3707 7.22846C9.8569 7.67607 10.1252 7.86315 10.3276 7.89586C10.3579 7.90081 10.3895 7.90293 10.4224 7.90293C10.6441 7.90293 10.9312 7.80032 11.2741 7.66877L11.4139 7.61582C12.6602 7.15716 13.4212 6.4441 13.6768 5.49642C13.8653 4.79466 13.7792 4.12161 13.4403 3.64977C13.1638 3.26453 12.7421 3.04356 12.221 3.01084C11.7847 2.9826 11.4746 3.16287 11.2013 3.33325C11.1204 3.21064 11.0265 3.08897 10.9112 2.9786C10.9921 2.66938 11.0208 2.35639 10.9846 2.03963C10.8564 0.922508 10.1682 0.171799 9.27257 0.171799C9.09207 0.171799 8.90498 0.202862 8.71648 0.264049C8.30253 0.398659 8.07849 0.680587 7.88693 0.939452C7.63513 0.764129 7.32967 0.605515 6.93125 0.605515C6.77028 0.605515 6.59896 0.631637 6.4227 0.68341C5.63645 0.912624 5.20179 1.70263 5.31569 2.69597C5.44583 3.82745 6.2422 4.70547 7.61818 5.2345ZM10.8514 3.88675L10.999 4.13644L11.2505 3.99241C11.3256 3.94958 11.3976 3.90463 11.4684 3.86016C11.7179 3.7039 11.9193 3.58058 12.1843 3.59776C12.5281 3.61941 12.7898 3.75238 12.9626 3.99265C13.1946 4.31576 13.2494 4.82078 13.1089 5.34345C12.9033 6.10664 12.2822 6.66932 11.2115 7.0635C11.1679 7.0795 11.118 7.09856 11.0637 7.11927C10.9037 7.18069 10.5278 7.32683 10.4311 7.31671C10.3972 7.30612 10.2497 7.23717 9.76959 6.79522C9.30387 6.36621 8.98452 5.92708 8.81179 5.48489C9.02664 5.41288 9.26551 5.20555 9.55073 4.94339L9.66133 4.84267C10.1125 4.43907 10.4448 4.02324 10.6683 3.598C10.7283 3.68366 10.7874 3.77803 10.8514 3.88675Z" fill="#794800"/>
<path d="M9.53637 8.23145C8.1632 8.23145 7.04608 9.34857 7.04608 10.7217C7.04608 12.0949 8.1632 13.212 9.53637 13.212C10.9095 13.212 12.0266 12.0949 12.0266 10.7217C12.0266 9.34857 10.9095 8.23145 9.53637 8.23145Z" fill="#794800"/>
<path d="M1.4986 11.4776C1.4986 12.6456 2.44887 13.5956 3.61658 13.5956C4.7843 13.5956 5.73457 12.6456 5.73457 11.4776C5.73457 10.3097 4.7843 9.35939 3.61658 9.35939C2.44887 9.35939 1.4986 10.3097 1.4986 11.4776Z" fill="#794800"/>
<path d="M15.3832 13.5956C16.5511 13.5956 17.5014 12.6456 17.5014 11.4776C17.5014 10.3097 16.5511 9.35939 15.3832 9.35939C14.2152 9.35939 13.2652 10.3097 13.2652 11.4776C13.2652 12.6456 14.2152 13.5956 15.3832 13.5956Z" fill="#794800"/>
<path d="M19 17.3767C19 15.3822 17.3774 13.7599 15.3832 13.7599C14.3661 13.7599 13.3935 14.1981 12.7119 14.9433C11.9257 14.0773 10.7951 13.5297 9.53636 13.5297C8.25804 13.5297 7.11173 14.094 6.32431 14.9834C5.64161 14.2129 4.65581 13.7599 3.61682 13.7599C1.62238 13.7599 0 15.3825 0 17.3767V19.4789H5.24179V20.2957H13.8314V19.4789H19V17.3767ZM0.588095 18.8906V17.3767C0.588095 15.7068 1.94667 14.3482 3.61658 14.3482C4.52426 14.3482 5.38157 14.7628 5.95461 15.4601C5.50489 16.1391 5.24155 16.9514 5.24155 17.8248V18.8906H0.588095ZM18.4117 18.8906H13.8312V17.8248C13.8312 16.9303 13.5556 16.0993 13.0859 15.4107C13.6624 14.7353 14.4863 14.3482 15.3832 14.3482C17.0531 14.3482 18.4117 15.7068 18.4117 17.3767V18.8906Z" fill="#794800"/>
<path d="M1.03474 4.08018C1.18088 4.09854 1.19335 4.10819 1.20865 4.1336C1.22395 4.15902 1.2263 4.17478 1.17311 4.31198C1.11334 4.46613 1.01309 4.72405 1.18088 5.0048C1.34867 5.28579 1.6233 5.32015 1.78733 5.34062C1.93394 5.35898 1.94665 5.36886 1.96195 5.39451C1.97724 5.42016 1.97983 5.43593 1.92665 5.5736C1.86687 5.72774 1.76709 5.9859 1.93488 6.26689L2.43991 5.96519C2.42461 5.93954 2.42202 5.92377 2.47521 5.7861C2.53498 5.63196 2.63476 5.3738 2.46697 5.09282C2.29918 4.81183 2.02455 4.77747 1.86052 4.757C1.71391 4.73864 1.7012 4.72876 1.6859 4.70311C1.67084 4.67769 1.66825 4.66192 1.72144 4.52472C1.78121 4.37058 1.88146 4.11266 1.71367 3.83191C1.54588 3.55116 1.27148 3.51703 1.10722 3.49656C0.96108 3.4782 0.948608 3.46855 0.933311 3.44314C0.91825 3.41796 0.915661 3.40219 0.968846 3.26499C1.02862 3.11085 1.12887 2.85316 0.96108 2.57217L0.456058 2.87387C0.471119 2.89905 0.473708 2.91482 0.420523 3.05202C0.360748 3.20616 0.260497 3.46385 0.428289 3.74483C0.59608 4.02582 0.870713 4.05971 1.03474 4.08018Z" fill="black"/>
<path d="M17.508 6.1704C17.6642 6.11651 17.9259 6.0259 18.0321 5.71644C18.1382 5.40675 17.9871 5.17471 17.8968 5.0361C17.8163 4.91255 17.8156 4.89655 17.8252 4.86831C17.8346 4.8403 17.8452 4.8283 17.9843 4.78029C18.1406 4.7264 18.4022 4.63627 18.5086 4.32657C18.6145 4.01735 18.4634 3.78554 18.3731 3.64717C18.2923 3.52409 18.2916 3.50809 18.3013 3.48032C18.3107 3.45231 18.3213 3.44031 18.4604 3.3923C18.6166 3.33841 18.8783 3.24828 18.9845 2.93882L18.4279 2.7482C18.4183 2.77597 18.4079 2.78797 18.2688 2.83598C18.1126 2.88987 17.8511 2.97977 17.7447 3.28923C17.6386 3.59869 17.7899 3.83049 17.8803 3.96887C17.9608 4.09218 17.9617 4.10818 17.9521 4.13595C17.9424 4.16372 17.9321 4.17596 17.7927 4.2242C17.6365 4.27809 17.375 4.36822 17.2687 4.67745C17.1625 4.98691 17.3136 5.21895 17.404 5.35756C17.4845 5.48111 17.4852 5.49735 17.4755 5.52582C17.4659 5.55406 17.4555 5.56607 17.316 5.61431C17.1597 5.6682 16.898 5.7588 16.7919 6.0685L17.3484 6.25912C17.3581 6.23064 17.3684 6.21864 17.508 6.1704Z" fill="black"/>
<path d="M3.12076 1.5939C3.55636 1.5939 3.91077 1.23949 3.91077 0.803895C3.91077 0.368296 3.55636 0.0138855 3.12076 0.0138855C2.68516 0.0138855 2.33075 0.368296 2.33075 0.803895C2.33075 1.23949 2.68516 1.5939 3.12076 1.5939ZM3.12076 0.602216C3.23207 0.602216 3.32244 0.692818 3.32244 0.803895C3.32244 0.914972 3.23184 1.00557 3.12076 1.00557C3.00968 1.00557 2.91908 0.914972 2.91908 0.803895C2.91908 0.692818 3.00945 0.602216 3.12076 0.602216Z" fill="black"/>
<path d="M14.2541 7.28235C14.2541 7.76502 14.6469 8.15778 15.1295 8.15778C15.6122 8.15778 16.0047 7.76525 16.0047 7.28235C16.0047 6.79968 15.6122 6.40715 15.1295 6.40715C14.6469 6.40715 14.2541 6.79968 14.2541 7.28235ZM15.4162 7.28235C15.4162 7.44049 15.2874 7.56945 15.1293 7.56945C14.9709 7.56945 14.8422 7.44073 14.8422 7.28235C14.8422 7.12397 14.9709 6.99548 15.1293 6.99548C15.2877 6.99524 15.4162 7.12397 15.4162 7.28235Z" fill="black"/>
<path d="M5.00319 5.84399H4.41486V6.61682H5.00319V5.84399Z" fill="black"/>
<path d="M5.00319 7.256H4.41486V8.02883H5.00319V7.256Z" fill="black"/>
<path d="M5.80139 6.64224H5.02856V7.23057H5.80139V6.64224Z" fill="black"/>
<path d="M4.38941 6.64224H3.61658V7.23057H4.38941V6.64224Z" fill="black"/>
<path d="M15.4237 0H14.8353V0.77283H15.4237V0Z" fill="black"/>
<path d="M15.4237 1.41199H14.8353V2.18482H15.4237V1.41199Z" fill="black"/>
<path d="M16.2219 0.798248H15.4489V1.38658H16.2219V0.798248Z" fill="black"/>
<path d="M14.8099 0.798248H14.0369V1.38658H14.8099V0.798248Z" fill="black"/>
</svg>
