<svg xmlns="http://www.w3.org/2000/svg" xmlns:xlink="http://www.w3.org/1999/xlink" version="1.1" x="0px" y="0px" viewBox="0 0 100 125" style="enable-background:new 0 0 100 100;" xml:space="preserve"><path d="M20.7685547,25.0449219c0-2.96875-2.4155273-5.3847656-5.3842773-5.3847656S10,22.0761719,10,25.0449219v14.7958984  c0,2.96875,2.4155273,5.3847656,5.3842773,5.3847656s5.3842773-2.4160156,5.3842773-5.3847656V25.0449219z M18.7685547,39.8408203  c0,1.8662109-1.5180664,3.3847656-3.3842773,3.3847656S12,41.7070312,12,39.8408203V25.0449219  c0-1.8662109,1.5180664-3.3847656,3.3842773-3.3847656s3.3842773,1.5185547,3.3842773,3.3847656V39.8408203z"/><path d="M15.3842773,56.0732422C12.4155273,56.0732422,10,58.4892578,10,61.4580078v14.796875  c0,2.96875,2.4155273,5.3837891,5.3842773,5.3837891s5.3842773-2.4150391,5.3842773-5.3837891v-14.796875  C20.7685547,58.4892578,18.3530273,56.0732422,15.3842773,56.0732422z M18.7685547,76.2548828  c0,1.8662109-1.5180664,3.3837891-3.3842773,3.3837891S12,78.1210938,12,76.2548828v-14.796875  c0-1.8662109,1.5180664-3.3847656,3.3842773-3.3847656s3.3842773,1.5185547,3.3842773,3.3847656V76.2548828z"/><path d="M84.6157227,19.6601562c-2.96875,0-5.3842773,2.4160156-5.3842773,5.3847656v14.7958984  c0,2.96875,2.4155273,5.3847656,5.3842773,5.3847656S90,42.8095703,90,39.8408203V25.0449219  C90,22.0761719,87.5844727,19.6601562,84.6157227,19.6601562z M88,39.8408203c0,1.8662109-1.5180664,3.3847656-3.3842773,3.3847656  s-3.3842773-1.5185547-3.3842773-3.3847656V25.0449219c0-1.8662109,1.5180664-3.3847656,3.3842773-3.3847656  S88,23.1787109,88,25.0449219V39.8408203z"/><path d="M84.6157227,56.0732422c-2.96875,0-5.3842773,2.4160156-5.3842773,5.3847656v14.796875  c0,2.96875,2.4155273,5.3837891,5.3842773,5.3837891S90,79.2236328,90,76.2548828v-14.796875  C90,58.4892578,87.5844727,56.0732422,84.6157227,56.0732422z M88,76.2548828c0,1.8662109-1.5180664,3.3837891-3.3842773,3.3837891  s-3.3842773-1.5175781-3.3842773-3.3837891v-14.796875c0-1.8662109,1.5180664-3.3847656,3.3842773-3.3847656  S88,59.5917969,88,61.4580078V76.2548828z"/><path d="M38.2348633,90h23.5302734c7.2421875,0,13.1342773-5.8916016,13.1342773-13.1337891V23.1337891  C74.8994141,15.8916016,69.0073242,10,61.7651367,10H38.2348633c-7.2421875,0-13.1342773,5.8916016-13.1342773,13.1337891  v53.7324219C25.1005859,84.1083984,30.9926758,90,38.2348633,90z M27.1005859,23.1337891  C27.1005859,16.9941406,32.0952148,12,38.2348633,12h23.5302734c6.1396484,0,11.1342773,4.9941406,11.1342773,11.1337891v53.7324219  C72.8994141,83.0058594,67.9047852,88,61.7651367,88H38.2348633c-6.1396484,0-11.1342773-4.9941406-11.1342773-11.1337891  V23.1337891z"/></svg>
