<svg width="26" height="26" viewBox="0 0 26 26" fill="none" xmlns="http://www.w3.org/2000/svg">
<path d="M13 22.968C10.3313 22.968 7.82243 21.9298 5.93579 20.0446C4.04915 18.1594 3.00958 15.6534 3.00958 12.9873C3.00958 10.3213 4.04876 7.81481 5.93579 5.93001C7.82282 4.0452 10.3317 3.00665 13 3.00665C15.6683 3.00665 18.1775 4.04481 20.0642 5.93001C21.9508 7.8152 22.9904 10.3217 22.9904 12.9873C22.9904 15.653 21.9512 18.1598 20.0642 20.0446C18.1772 21.9294 15.6686 22.968 13 22.968ZM13 3.59054C7.81347 3.59054 3.59404 7.80586 3.59404 12.9873C3.59404 18.1688 7.81347 22.3841 13 22.3841C18.1865 22.3841 22.4059 18.1688 22.4059 12.9873C22.4059 7.80586 18.1865 3.59054 13 3.59054Z" fill="black"/>
<path d="M1.5383 6.59759C1.12723 6.59759 0.740708 6.4376 0.450036 6.14722C-0.150012 5.54775 -0.150012 4.57226 0.450036 3.9728L3.97668 0.449597C4.57673 -0.149866 5.55317 -0.149866 6.15322 0.449597C6.44389 0.739986 6.60403 1.12613 6.60403 1.5368C6.60403 1.94747 6.44389 2.33362 6.15322 2.62401L2.62657 6.14722C2.3359 6.4376 1.94938 6.59759 1.5383 6.59759ZM0.863446 5.7346C1.04385 5.91483 1.28348 6.01409 1.5383 6.01409C1.79313 6.01409 2.03315 5.91483 2.21316 5.7346L5.73981 2.21139C5.92021 2.03117 6.01957 1.79177 6.01957 1.53719C6.01957 1.28262 5.92021 1.04283 5.73981 0.862992C5.3677 0.491248 4.76181 0.491248 4.3897 0.862992L0.863056 4.3862C0.491338 4.75755 0.491338 5.36285 0.863446 5.7346Z" fill="black"/>
<path d="M20.935 25.9746C20.5411 25.9746 20.1468 25.8248 19.8467 25.525C19.5561 25.2346 19.3959 24.8485 19.3959 24.4378C19.3959 24.0272 19.5561 23.641 19.8467 23.3506L23.3734 19.8274C23.6641 19.537 24.0506 19.377 24.4617 19.377C24.8727 19.377 25.2593 19.537 25.5499 19.8274C26.15 20.4269 26.15 21.4024 25.5499 22.0018L22.0233 25.525C21.7233 25.8248 21.3289 25.9746 20.935 25.9746ZM20.2598 25.112C20.6319 25.4838 21.2378 25.4838 21.6099 25.112L25.1365 21.5888C25.5086 21.2171 25.5086 20.6118 25.1365 20.24C24.9561 20.0598 24.7165 19.9605 24.4617 19.9605C24.2068 19.9605 23.9668 20.0598 23.7868 20.24L20.2602 23.7632C20.0798 23.9435 19.9804 24.1829 19.9804 24.4374C19.9804 24.692 20.0798 24.9318 20.2598 25.112Z" fill="black"/>
<path d="M24.4617 6.59759C24.0506 6.59759 23.6641 6.4376 23.3734 6.14722L19.8467 2.62401C19.5561 2.33362 19.3959 1.94747 19.3959 1.5368C19.3959 1.12613 19.5561 0.739986 19.8467 0.449597C20.4468 -0.149866 21.4232 -0.149866 22.0233 0.449597L25.5499 3.9728C26.15 4.57226 26.15 5.54775 25.5499 6.14722C25.2593 6.4376 24.8727 6.59759 24.4617 6.59759ZM20.935 0.583503C20.6907 0.583503 20.446 0.676536 20.2602 0.862213C20.0798 1.04244 19.9804 1.28184 19.9804 1.53641C19.9804 1.79099 20.0798 2.03078 20.2602 2.21061L23.7868 5.73382C23.9672 5.91405 24.2068 6.01331 24.4617 6.01331C24.7165 6.01331 24.9565 5.91405 25.1365 5.73382C25.5086 5.36208 25.5086 4.75677 25.1365 4.38503L21.6099 0.861824C21.424 0.676536 21.1793 0.583503 20.935 0.583503Z" fill="black"/>
<path d="M5.06495 25.9746C4.67102 25.9746 4.27671 25.8248 3.97668 25.525L0.450036 22.0018C-0.150012 21.4024 -0.150012 20.4269 0.450036 19.8274C0.740708 19.537 1.12723 19.377 1.5383 19.377C1.94938 19.377 2.3359 19.537 2.62657 19.8274L6.15322 23.3506C6.44389 23.641 6.60403 24.0272 6.60403 24.4378C6.60403 24.8485 6.44389 25.2346 6.15322 25.525C5.85319 25.8248 5.45927 25.9746 5.06495 25.9746ZM1.5383 19.9609C1.28348 19.9609 1.04346 20.0602 0.863446 20.2404C0.491338 20.6122 0.491338 21.2175 0.863446 21.5892L4.39009 25.1124C4.7622 25.4842 5.36809 25.4842 5.7402 25.1124C5.9206 24.9322 6.01996 24.6928 6.01996 24.4382C6.01996 24.1836 5.9206 23.9439 5.7402 23.764L2.21355 20.2408C2.03315 20.0602 1.79352 19.9609 1.5383 19.9609Z" fill="black"/>
<path d="M13 15.7705C11.464 15.7705 10.2141 14.5218 10.2141 12.9873C10.2141 11.4529 11.464 10.2041 13 10.2041C14.536 10.2041 15.7859 11.4529 15.7859 12.9873C15.7859 14.5218 14.536 15.7705 13 15.7705ZM13 10.788C11.7863 10.788 10.7985 11.7748 10.7985 12.9873C10.7985 14.1999 11.7863 15.1866 13 15.1866C14.2137 15.1866 15.2015 14.1999 15.2015 12.9873C15.2015 11.7748 14.2137 10.788 13 10.788Z" fill="black"/>
</svg>
